<?xml version="1.0" encoding="utf-8"?>
<!-- Generator: Adobe Illustrator 25.2.3, SVG Export Plug-In . SVG Version: 6.00 Build 0)  -->
<svg version="1.1" id="Layer_1" xmlns="http://www.w3.org/2000/svg" xmlns:xlink="http://www.w3.org/1999/xlink" x="0px" y="0px"
	 viewBox="0 0 1920 1080" style="enable-background:new 0 0 1920 1080;" xml:space="preserve">
<style type="text/css">
	.st0{fill:#7D8FD8;}
	.st1{fill:#9DD0ED;}
	.st2{fill:#FFFFFF;}
</style>
<g>
	<g>
		<g>
			<path class="st0" d="M865.32,70.47c0.93,0.43,1.85,0.88,2.77,1.32C867.17,71.35,866.25,70.91,865.32,70.47z"/>
			<path class="st0" d="M872,73.75c0.94,0.48,1.87,0.97,2.8,1.47C873.87,74.72,872.94,74.23,872,73.75z"/>
			<path class="st0" d="M868.68,72.08c0.93,0.46,1.86,0.92,2.79,1.4C870.54,73.01,869.61,72.54,868.68,72.08z"/>
			<path class="st0" d="M875.3,75.48c0.94,0.51,1.88,1.02,2.81,1.54C877.17,76.5,876.24,75.98,875.3,75.48z"/>
			<path class="st0" d="M881.77,79.12c0.95,0.56,1.89,1.12,2.82,1.69C883.66,80.24,882.72,79.68,881.77,79.12z"/>
			<path class="st0" d="M844.58,62.18c0.88,0.3,1.76,0.6,2.63,0.91C846.33,62.78,845.46,62.47,844.58,62.18z"/>
			<path class="st0" d="M858.52,67.45c0.91,0.39,1.83,0.78,2.73,1.18C860.34,68.23,859.43,67.84,858.52,67.45z"/>
			<path class="st0" d="M848.1,63.4c0.89,0.32,1.77,0.64,2.66,0.97C849.87,64.04,848.99,63.72,848.1,63.4z"/>
			<path class="st0" d="M851.6,64.69c0.9,0.34,1.79,0.69,2.69,1.04C853.39,65.37,852.5,65.03,851.6,64.69z"/>
			<path class="st0" d="M855.07,66.04c0.91,0.36,1.81,0.74,2.71,1.11C856.88,66.77,855.98,66.4,855.07,66.04z"/>
			<path class="st0" d="M861.93,68.93c0.92,0.41,1.84,0.83,2.76,1.25C863.77,69.76,862.86,69.34,861.93,68.93z"/>
			<path class="st0" d="M884.96,81.03c0.95,0.58,1.89,1.17,2.83,1.77C886.84,82.2,885.9,81.61,884.96,81.03z"/>
			<path class="st0" d="M878.55,77.27c0.95,0.53,1.89,1.07,2.82,1.62C880.44,78.34,879.5,77.8,878.55,77.27z"/>
			<path class="st0" d="M888.1,83c0.95,0.61,1.89,1.22,2.82,1.84C889.98,84.22,889.04,83.61,888.1,83z"/>
			<path class="st0" d="M906.06,96.05c0.92,0.76,1.84,1.52,2.74,2.3C907.9,97.57,906.99,96.81,906.06,96.05z"/>
			<path class="st0" d="M908.9,98.42c0.91,0.78,1.82,1.57,2.71,2.37C910.71,99.99,909.81,99.2,908.9,98.42z"/>
			<path class="st0" d="M914.41,103.34c0.89,0.83,1.77,1.66,2.65,2.51C916.19,105,915.3,104.16,914.41,103.34z"/>
			<path class="st0" d="M784.33,52.05c-0.65,0-1.31-0.01-1.96-0.01C783.02,52.04,783.68,52.05,784.33,52.05z"/>
			<path class="st0" d="M919.7,108.45c-0.86-0.87-1.73-1.73-2.61-2.58C917.97,106.73,918.84,107.58,919.7,108.45z"/>
			<path class="st0" d="M911.68,100.85c0.9,0.8,1.8,1.62,2.68,2.44C913.48,102.47,912.58,101.66,911.68,100.85z"/>
			<path class="st0" d="M891.2,85.03c0.94,0.63,1.88,1.27,2.82,1.92C893.08,86.3,892.15,85.66,891.2,85.03z"/>
			<path class="st0" d="M894.26,87.12c0.94,0.66,1.88,1.32,2.81,2C896.14,88.45,895.21,87.78,894.26,87.12z"/>
			<path class="st0" d="M903.18,93.73c0.93,0.73,1.85,1.47,2.77,2.22C905.03,95.2,904.11,94.46,903.18,93.73z"/>
			<path class="st0" d="M900.25,91.47c0.94,0.71,1.86,1.42,2.78,2.15C902.12,92.89,901.19,92.18,900.25,91.47z"/>
			<path class="st0" d="M897.28,89.27c0.94,0.68,1.87,1.37,2.8,2.07C899.15,90.64,898.22,89.95,897.28,89.27z"/>
			<path class="st0" d="M767.53,52.76c0.58-0.05,1.16-0.09,1.75-0.14C768.69,52.67,768.11,52.71,767.53,52.76z"/>
			<path class="st0" d="M797.23,52.55c0.71,0.05,1.41,0.12,2.12,0.18C798.64,52.67,797.94,52.61,797.23,52.55z"/>
			<path class="st0" d="M774.94,52.25c0.61-0.03,1.23-0.05,1.84-0.07C776.17,52.2,775.55,52.22,774.94,52.25z"/>
			<path class="st0" d="M841.03,61.02c0.87,0.27,1.74,0.56,2.6,0.84C842.77,61.58,841.9,61.3,841.03,61.02z"/>
			<path class="st0" d="M778.65,52.11c0.63-0.02,1.25-0.02,1.88-0.03C779.91,52.09,779.28,52.09,778.65,52.11z"/>
			<path class="st0" d="M793.52,52.31c0.7,0.04,1.4,0.09,2.09,0.13C794.91,52.4,794.21,52.35,793.52,52.31z"/>
			<path class="st0" d="M789.8,52.15c0.68,0.02,1.37,0.06,2.05,0.09C791.17,52.21,790.49,52.17,789.8,52.15z"/>
			<path class="st0" d="M771.23,52.46c0.6-0.04,1.2-0.07,1.81-0.11C772.44,52.39,771.83,52.42,771.23,52.46z"/>
			<path class="st0" d="M1432.84,432.59c3.47,0.19-9.25-125.16-11.25-136.04c-9.42-51.2-29.93-98.99-68.68-134.85
				c-49.91-46.19-117.2-73.4-184.73-78.57c-76.1-5.82-165.77,8.32-215.59,72.27c-7.59-16.44-17.93-31.29-30.29-44.28
				c11.89,12.5,21.91,26.73,29.41,42.44l-0.8,7.1l6.56,21.89l15.6,17.27l5.72,19.71l3.64,200.35l-102.99,5.2l-10.4,32.25v141.48
				l97.78,9.36l-1.99,177.88c132.94,0,265.87,0,398.81,0c0,0,99.84,0,123.78-7.98C1669.28,717.44,1618.51,442.97,1432.84,432.59z"/>
			<path class="st0" d="M763.84,53.13c0.54-0.06,1.08-0.11,1.62-0.16C764.92,53.02,764.38,53.07,763.84,53.13z"/>
			<path class="st0" d="M922.29,111.11c-0.85-0.89-1.7-1.77-2.57-2.64C920.58,109.34,921.44,110.22,922.29,111.11z"/>
			<path class="st0" d="M760.15,53.59c0.49-0.07,0.99-0.12,1.48-0.18C761.14,53.46,760.64,53.52,760.15,53.59z"/>
			<path class="st0" d="M756.47,54.12c0.42-0.07,0.85-0.12,1.28-0.19C757.33,54,756.9,54.05,756.47,54.12z"/>
			<path class="st0" d="M786.08,52.06c0.67,0.01,1.35,0.03,2.02,0.05C787.43,52.09,786.75,52.07,786.08,52.06z"/>
			<path class="st0" d="M823.01,56.27c0.81,0.17,1.61,0.36,2.41,0.54C824.62,56.62,823.82,56.44,823.01,56.27z"/>
			<path class="st0" d="M826.66,57.08c0.82,0.19,1.63,0.39,2.45,0.59C828.29,57.47,827.47,57.27,826.66,57.08z"/>
			<path class="st0" d="M830.28,57.96c0.83,0.21,1.66,0.43,2.48,0.65C831.93,58.4,831.1,58.18,830.28,57.96z"/>
			<path class="st0" d="M800.94,52.87c0.72,0.07,1.45,0.15,2.17,0.22C802.39,53.01,801.66,52.94,800.94,52.87z"/>
			<path class="st0" d="M837.47,59.94c0.86,0.25,1.71,0.51,2.56,0.78C839.18,60.45,838.32,60.19,837.47,59.94z"/>
			<path class="st0" d="M833.88,58.92c0.84,0.23,1.68,0.47,2.51,0.71C835.56,59.39,834.72,59.15,833.88,58.92z"/>
			<path class="st0" d="M808.34,53.71c0.75,0.1,1.5,0.21,2.25,0.32C809.84,53.93,809.09,53.81,808.34,53.71z"/>
			<path class="st0" d="M819.37,55.52c0.79,0.15,1.59,0.32,2.38,0.48C820.95,55.84,820.16,55.68,819.37,55.52z"/>
			<path class="st0" d="M804.64,53.25c0.74,0.08,1.48,0.18,2.22,0.27C806.12,53.43,805.38,53.34,804.64,53.25z"/>
			<path class="st0" d="M812.02,54.24c0.76,0.12,1.53,0.25,2.29,0.37C813.55,54.49,812.79,54.36,812.02,54.24z"/>
			<path class="st0" d="M815.7,54.85c0.78,0.14,1.55,0.28,2.32,0.43C817.25,55.13,816.48,54.98,815.7,54.85z"/>
		</g>
		<path class="st1" d="M966.82,607.12l-97.78-9.36V456.28l10.4-32.25l102.99-5.2l-3.64-200.35l-5.72-19.71l-15.6-17.27l-6.56-21.89
			l0.8-7.1C917.41,80.7,830.49,39.8,752.81,53.69c-74.61,13.34-129.32,78.47-145.54,149.33c-0.48,2.11-6.67,39.14-5.94,39.14
			c-23.97,0.01-239.48,71.86-239.48,271.42c0,27.89,4.33,55.75,13.36,82.16c22.46,65.68,72.71,117.85,130.76,154.05
			c23.53,14.67,47.84,23.64,72.77,29.11c46.54,10.2,95.25,8.2,145.09,8.3c68.55,0.13,137.09-2.2,205.65-2.2c11.79,0,23.57,0,35.36,0
			L966.82,607.12z"/>
	</g>
	<g>
		<path class="st2" d="M843.15,696.58v-5.2h-93.62V345.45c13.62-2.67,23.93-14.7,23.93-29.09c0-16.35-13.3-29.65-29.65-29.65
			c-16.35,0-29.65,13.3-29.65,29.65c0,14.75,10.84,27.02,24.97,29.27V619.6h-89.84c-2.25-14.13-14.52-24.97-29.27-24.97
			c-16.35,0-29.65,13.3-29.65,29.65s13.3,29.65,29.65,29.65c14.39,0,26.41-10.31,29.09-23.93h90.02v66.58h5.2v5.2h89.46v86.34h10.4
			v-91.54H843.15z M620.02,645.6c-11.76,0-21.33-9.57-21.33-21.33s9.57-21.33,21.33-21.33s21.33,9.57,21.33,21.33
			S631.78,645.6,620.02,645.6z M722.48,316.36c0-11.76,9.57-21.33,21.33-21.33c11.76,0,21.33,9.57,21.33,21.33
			c0,11.76-9.57,21.33-21.33,21.33C732.05,337.69,722.48,328.12,722.48,316.36z"/>
		<g>
			<path class="st2" d="M1121.94,427.67c0-16.35-13.3-29.65-29.65-29.65c-16.35,0-29.65,13.3-29.65,29.65
				c0,16.35,13.3,29.65,29.65,29.65C1108.64,457.32,1121.94,444.02,1121.94,427.67z M1092.29,449c-11.76,0-21.33-9.57-21.33-21.33
				c0-11.76,9.57-21.33,21.33-21.33s21.33,9.57,21.33,21.33C1113.62,439.43,1104.05,449,1092.29,449z"/>
			<path class="st2" d="M1176.56,635.2c-15.11,0-27.61,11.37-29.42,26.01h-96.98v5.2v5.2v40.57h-75.94V548.86h112.35h5.2h5.2v-91.54
				h-4.68h-5.72v81.14H974.22h-5.2h-5.2v59.29h-87.38V425.07h102.99v-5.2h1.04V200c14.13-2.25,24.97-14.52,24.97-29.27
				c0-16.35-13.3-29.65-29.65-29.65s-29.65,13.3-29.65,29.65c0,14.39,10.31,26.41,23.93,29.09v214.85H866.04v5.2v5.2v172.68v1.04
				v9.36h97.78v177.88h10.4v-63.46h75.94h5.2h5.2v-50.97h87.13c3.07,13.1,14.84,22.89,28.86,22.89c16.35,0,29.65-13.3,29.65-29.65
				C1206.2,648.5,1192.9,635.2,1176.56,635.2z M954.46,170.73c0-11.76,9.57-21.33,21.33-21.33s21.33,9.57,21.33,21.33
				s-9.57,21.33-21.33,21.33S954.46,182.49,954.46,170.73z M1176.56,686.17c-11.76,0-21.33-9.57-21.33-21.33
				c0-11.76,9.57-21.33,21.33-21.33c11.76,0,21.33,9.57,21.33,21.33C1197.88,676.61,1188.31,686.17,1176.56,686.17z"/>
		</g>
	</g>
</g>
<g>
	<path class="st0" d="M632.01,973.86l20.23,23.33l-23.92,15.16l-18.44-22.25c-13.85,5.06-26.23,7.59-37.16,7.59
		c-24.27,0-44.19-8.07-59.75-24.22c-15.56-16.15-23.33-36.86-23.33-62.15c0-20.86,7.57-39.7,22.72-56.52
		c15.15-16.81,35.19-25.22,60.15-25.22c23.36,0,43.04,8.01,59.02,24.03c15.98,16.02,23.97,35.75,23.97,59.19
		C655.5,936.82,647.67,957.18,632.01,973.86z M586.7,963.02l-17.32-20.54l23.28-15.14l15.98,18.73c6.45-7.16,9.68-17.66,9.68-31.48
		c0-15.91-4.17-28.58-12.52-38.04c-8.35-9.45-19.45-14.18-33.3-14.18c-13.44,0-24.41,4.69-32.92,14.06
		c-8.51,9.38-12.77,21.48-12.77,36.32c0,15.09,4.08,27.49,12.25,37.2c8.17,9.71,18.5,14.57,31.01,14.57
		C574.74,964.52,580.28,964.02,586.7,963.02z"/>
	<path class="st1" d="M736.81,831.58h35.17v128.93h48.44v35.42h-83.62V831.58z"/>
	<path class="st1" d="M888.85,913.7c0-24.28,8.03-44.33,24.1-60.15c16.06-15.81,35.11-23.72,57.14-23.72
		c24.37,0,44.52,7.95,60.46,23.85c15.94,15.9,23.91,35.99,23.91,60.27c0,24.12-7.89,44.15-23.66,60.08
		c-15.77,15.94-35.63,23.91-59.58,23.91c-23.95,0-43.67-7.93-59.15-23.78C896.59,958.3,888.85,938.15,888.85,913.7z M971.71,862.62
		c-13.77-0.25-24.87,4.51-33.3,14.27c-8.43,9.76-12.64,22.37-12.64,37.8c0,14.6,4.3,26.71,12.89,36.3
		c8.59,9.6,19.44,14.4,32.55,14.4c13.77,0,24.89-4.74,33.36-14.21c8.47-9.47,12.71-21.97,12.71-37.49c0-15.27-4.15-27.54-12.46-36.8
		C996.52,867.63,985.48,862.87,971.71,862.62z"/>
	<path class="st1" d="M1135.27,831.58h34.92V932.1c0,9.35,2.59,16.86,7.76,22.53c5.17,5.68,11.97,8.51,20.4,8.51
		c9.68,0,17.19-2.86,22.53-8.57c5.34-5.72,8.01-13.79,8.01-24.22v-98.76h34.8v106.4c0,9.35-2.42,19.05-7.26,29.1
		c-4.84,10.06-12.29,17.75-22.34,23.09c-10.06,5.34-21.3,8.01-33.74,8.01c-22.53,0-39.01-6.28-49.44-18.84
		c-10.43-12.56-15.65-25.76-15.65-39.62V831.58z"/>
	<path class="st1" d="M1348.52,831.58h56.08c23.95,0,43.23,7.55,57.83,22.66c14.6,15.11,21.91,35.01,21.91,59.71
		c0,24.79-7.53,44.65-22.59,59.58c-15.06,14.94-35.11,22.41-60.15,22.41h-53.07V831.58z M1384.19,862.62v101.52h14.02
		c14.52,0,26.45-3.96,35.8-11.89c9.34-7.93,14.02-21.15,14.02-39.68c0-10.76-2.25-20.3-6.76-28.6c-4.51-8.3-11.04-13.94-19.59-16.9
		c-8.55-2.96-16.71-4.44-24.47-4.44H1384.19z"/>
</g>
</svg>
